<svg xmlns="http://www.w3.org/2000/svg" viewBox="0 0 125.11 125.11"><defs><style>.cls-1{fill:none;stroke:#231f20;stroke-miterlimit:10;stroke-width:5px;}.cls-2{fill:#231f20;}</style></defs><g id="Layer_2" data-name="Layer 2"><g id="Layer_1-2" data-name="Layer 1"><path class="cls-1" d="M3.45,74.61C-3,40,24.61,4.33,59.79,2.57,93,.91,123.67,29.93,122.58,64.62c-1,31.13-27.17,56.06-56.75,57.88C36.88,124.29,8.88,103.69,3.45,74.61Z"/><path class="cls-1" d="M62.56,13.85l-.11,52.46a1.3,1.3,0,0,1-2.38.71L42.13,39"/><path class="cls-2" d="M62.62,16.4c3.22,0,3.22-5,0-5s-3.22,5,0,5Z"/><path class="cls-2" d="M62.47,16.43c3.21,0,3.22-5,0-5s-3.23,5,0,5Z"/><path class="cls-2" d="M42.22,41.64c3.22,0,3.22-5,0-5s-3.22,5,0,5Z"/></g></g></svg>