<svg xmlns="http://www.w3.org/2000/svg" viewBox="0 0 124.96 124.96"><defs><style>.cls-1{fill:none;stroke:#1d1d1b;stroke-miterlimit:10;stroke-width:4px;}</style></defs><g id="Layer_2" data-name="Layer 2"><g id="Layer_1-2" data-name="Layer 1"><path class="cls-1" d="M2.26,70.1c-4-38.79,38.67-75.49,76.23-66.82C103.92,9.16,123.29,35,123,62.11c-.39,32.07-28.3,61.84-62.61,60.82C29.6,122,5,96.75,2.26,70.1Z"/><path class="cls-1" d="M21.55,106.26c5.39-23,24.24-38.37,44.28-36.94,18.08,1.29,33.83,16,38.7,36.6"/><path class="cls-1" d="M48.07,49.86c-1-9.63,9.62-18.75,18.95-16.6,6.32,1.46,11.13,7.88,11,14.62-.1,8-7,15.36-15.56,15.11A15.25,15.25,0,0,1,48.07,49.86Z"/></g></g></svg>